# xmcd
#
# Track frame offsets: 
#        150
#        14326
#        29707
#
# Disc length: 629 seconds
#
# Revision: 2
# Processed by: cddbd v1.5.2PL0 Copyright (c) Steve Scherf et al.
# Submitted via: ExactAudioCopy v1.0b3
#
DISCID=1f027303
DTITLE=Go - Go!
DYEAR=1999
DGENRE=Alternative
TTITLE0=Hot Step
TTITLE1=So Free
TTITLE2=No Regrets
EXTD=YEAR: 1999 ID3G:   2
EXTT0=
EXTT1=
EXTT2=
PLAYORDER=
